<svg width="600.839990234375px" height="178.6399963378906px" xmlns="http://www.w3.org/2000/svg" viewBox="-50.41999511718751 -14.319998168945304 600.839990234375 178.6399963378906" style="background: rgba(0, 0, 0, 0) none repeat scroll 0% 0%;" preserveAspectRatio="xMidYMid"><defs><filter id="editing-hole" x="-100%" y="-100%" width="300%" height="300%"><feFlood flood-color="#000000" result="black"></feFlood><feMorphology operator="dilate" radius="2" in="SourceGraphic" result="erode"></feMorphology><feGaussianBlur in="erode" stdDeviation="4" result="blur"></feGaussianBlur><feOffset in="blur" dx="2" dy="2" result="offset"></feOffset><feComposite operator="atop" in="offset" in2="black" result="merge"></feComposite><feComposite operator="in" in="merge" in2="SourceGraphic" result="inner-shadow"></feComposite></filter></defs><g filter="url(#editing-hole)"><g transform="translate(40.45000684261322, 116.36088132858276)"><path d="M41.68-72.43L41.68-72.43L41.68-72.43Q41.68-70.78 40.92-69.56L40.92-69.56L40.92-69.56Q40.17-68.34 38.48-68.34L38.48-68.34L28.57-68.34L28.57-7.82L59.85-7.82L59.85-7.82Q63.63-7.82 66.36-8.89L66.36-8.89L66.36-8.89Q69.09-9.95 69.41-13.46L69.41-13.46L70.69-25.95L70.69-25.95Q70.87-27.42 71.83-28.08L71.83-28.08L71.83-28.08Q72.78-28.75 74.34-28.75L74.34-28.75L74.34-28.75Q75.98-28.75 77.20-27.86L77.20-27.86L77.20-27.86Q78.43-26.97 78.43-25.19L78.43-25.19L76.43-3.02L76.43-3.02Q76.29-1.78 75.63-0.89L75.63-0.89L75.63-0.89Q74.96 0 73.72 0L73.72 0L4.89 0L4.89 0Q3.33 0 2.47-1.13L2.47-1.13L2.47-1.13Q1.60-2.27 1.60-3.73L1.60-3.73L1.60-3.73Q1.60-5.38 2.35-6.60L2.35-6.60L2.35-6.60Q3.11-7.82 4.80-7.82L4.80-7.82L18.17-7.82L18.17-68.34L7.55-68.34L7.55-68.34Q5.87-68.34 5.11-69.56L5.11-69.56L5.11-69.56Q4.35-70.78 4.35-72.43L4.35-72.43L4.35-72.43Q4.35-73.89 5.22-75.03L5.22-75.03L5.22-75.03Q6.09-76.16 7.64-76.16L7.64-76.16L38.39-76.16L38.39-76.16Q39.95-76.16 40.81-75.03L40.81-75.03L40.81-75.03Q41.68-73.89 41.68-72.43L41.68-72.43ZM103.49-46.61L103.49-46.61L103.49-46.61Q103.49-44.97 102.73-43.72L102.73-43.72L102.73-43.72Q101.98-42.48 100.29-42.48L100.29-42.48L94.95-42.48L110.42-9.29L122.68-42.48L117.53-42.48L117.53-42.48Q115.84-42.48 115.08-43.72L115.08-43.72L115.08-43.72Q114.33-44.97 114.33-46.61L114.33-46.61L114.33-46.61Q114.33-48.08 115.19-49.21L115.19-49.21L115.19-49.21Q116.06-50.34 117.62-50.34L117.62-50.34L135.52-50.34L135.52-50.34Q137.43-50.34 138.30-49.28L138.30-49.28L138.30-49.28Q139.17-48.21 139.17-46.52L139.17-46.52L139.17-46.52Q139.17-44.88 138.34-43.68L138.34-43.68L138.34-43.68Q137.52-42.48 135.79-42.48L135.79-42.48L130.59-42.48L112.15 5.38L112.15 5.38Q109.75 11.02 105.69 18.62L105.69 18.62L105.69 18.62Q101.62 26.22 93.22 26.22L93.22 26.22L93.22 26.22Q90.56 26.22 89.07 24.75L89.07 24.75L89.07 24.75Q87.58 23.28 87.58 21.51L87.58 21.51L87.58 21.51Q87.58 19.86 88.71 18.13L88.71 18.13L88.71 18.13Q89.84 16.40 92.69 16.35L92.69 16.35L92.69 16.35Q96.42 16.35 99.13 13.64L99.13 13.64L99.13 13.64Q101.84 10.93 103.31 7.38L103.31 7.38L106.15 0.27L106.15 0.27Q105.93 0.27 105.02-1.53L105.02-1.53L105.02-1.53Q104.11-3.33 103.93-3.73L103.93-3.73L84.91-42.48L79.54-42.48L79.54-42.48Q77.80-42.48 77.00-43.68L77.00-43.68L77.00-43.68Q76.20-44.88 76.20-46.52L76.20-46.52L76.20-46.52Q76.20-48.21 77.09-49.28L77.09-49.28L77.09-49.28Q77.98-50.34 79.85-50.34L79.85-50.34L100.20-50.34L100.20-50.34Q101.75-50.34 102.62-49.21L102.62-49.21L102.62-49.21Q103.49-48.08 103.49-46.61L103.49-46.61ZM177.69-39.77L177.69-44.70L177.69-44.70Q172.36-44.70 168.18-42.35L168.18-42.35L168.18-42.35Q164.00-39.99 161.83-36.75L161.83-36.75L161.83-7.82L173.74-7.82L173.74-7.82Q175.42-7.82 176.18-6.60L176.18-6.60L176.18-6.60Q176.93-5.38 176.93-3.73L176.93-3.73L176.93-3.73Q176.93-2.27 176.07-1.13L176.07-1.13L176.07-1.13Q175.20 0 173.65 0L173.65 0L144.28 0L144.28 0Q142.41 0 141.52-1.07L141.52-1.07L141.52-1.07Q140.63-2.13 140.63-3.82L140.63-3.82L140.63-3.82Q140.63-5.47 141.45-6.64L141.45-6.64L141.45-6.64Q142.28-7.82 144.01-7.82L144.01-7.82L152.72-7.82L152.72-43.50L146.36-41.95L146.36-41.95Q146.28-41.90 146.12-41.88L146.12-41.88L146.12-41.88Q145.96-41.86 145.74-41.86L145.74-41.86L145.74-41.86Q144.41-41.86 143.25-42.95L143.25-42.95L143.25-42.95Q142.10-44.03 142.10-45.41L142.10-45.41L142.10-45.41Q142.10-46.92 142.74-47.83L142.74-47.83L142.74-47.83Q143.39-48.74 144.63-49.14L144.63-49.14L157.03-52.70L157.03-52.70Q157.21-52.70 157.25-52.74L157.25-52.74L157.25-52.74Q157.29-52.79 157.47-52.79L157.47-52.79L157.74-52.79L157.74-52.79Q158.67-52.79 159.34-52.23L159.34-52.23L159.34-52.23Q160.01-51.68 160.01-50.70L160.01-50.70L160.94-42.30L160.94-42.30Q164.00-46.97 169.00-49.88L169.00-49.88L169.00-49.88Q174.00-52.79 181.78-52.79L181.78-52.79L181.78-52.79Q183.24-52.79 184.38-51.92L184.38-51.92L184.38-51.92Q185.51-51.05 185.51-49.50L185.51-49.50L185.51-40.03L185.51-40.03Q185.51-38.17 184.44-37.28L184.44-37.28L184.44-37.28Q183.38-36.39 181.69-36.39L181.69-36.39L181.69-36.39Q180.04-36.39 178.87-37.21L178.87-37.21L178.87-37.21Q177.69-38.04 177.69-39.77L177.69-39.77ZM206.13-63.41L206.13-63.41L206.13-63.41Q203.33-63.41 201.35-65.38L201.35-65.38L201.35-65.38Q199.37-67.36 199.37-70.16L199.37-70.16L199.37-70.16Q199.37-72.96 201.35-74.94L201.35-74.94L201.35-74.94Q203.33-76.91 206.13-76.91L206.13-76.91L206.13-76.91Q208.93-76.91 210.88-74.94L210.88-74.94L210.88-74.94Q212.84-72.96 212.84-70.16L212.84-70.16L212.84-70.16Q212.84-67.36 210.88-65.38L210.88-65.38L210.88-65.38Q208.93-63.41 206.13-63.41L206.13-63.41ZM192.44-3.69L192.44-3.69L192.44-3.69Q192.44-5.33 193.26-6.51L193.26-6.51L193.26-6.51Q194.09-7.69 195.82-7.69L195.82-7.69L201.91-7.69L201.91-43.68L195.55-41.95L195.55-41.95Q195.46-41.90 195.31-41.88L195.31-41.88L195.31-41.88Q195.15-41.86 194.93-41.86L194.93-41.86L194.93-41.86Q193.60-41.86 192.44-42.95L192.44-42.95L192.44-42.95Q191.29-44.03 191.29-45.41L191.29-45.41L191.29-45.41Q191.29-46.83 191.93-47.83L191.93-47.83L191.93-47.83Q192.58-48.83 193.82-49.14L193.82-49.14L208.04-52.70L208.04-52.70Q208.17-52.74 208.35-52.76L208.35-52.76L208.35-52.76Q208.53-52.79 208.75-52.79L208.75-52.79L208.75-52.79Q209.73-52.79 210.37-52.23L210.37-52.23L210.37-52.23Q211.02-51.68 211.02-50.70L211.02-50.70L211.02-7.69L217.86-7.69L217.86-7.69Q219.55-7.69 220.30-6.47L220.30-6.47L220.30-6.47Q221.06-5.24 221.06-3.60L221.06-3.60L221.06-3.60Q221.06-2.13 220.19-1.07L220.19-1.07L220.19-1.07Q219.32 0 217.77 0L217.77 0L196.09 0L196.09 0Q194.22 0 193.33-1.00L193.33-1.00L193.33-1.00Q192.44-2.00 192.44-3.69L192.44-3.69ZM255.72-52.79L255.72-52.79L255.72-52.79Q262.42-52.79 268.62-50.05L268.62-50.05L268.62-50.05Q274.82-47.32 274.82-39.01L274.82-39.01L274.82-39.01Q274.82-36.39 273.80-34.59L273.80-34.59L273.80-34.59Q272.78-32.79 270.51-32.79L270.51-32.79L270.51-32.79Q267.18-32.79 266.25-36.68L266.25-36.68L266.25-36.68Q265.31-40.57 264.47-44.12L264.47-44.12L264.47-44.12Q262.29-44.70 260.18-44.97L260.18-44.97L260.18-44.97Q258.07-45.23 256.03-45.23L256.03-45.23L256.03-45.23Q247.45-45.23 241.67-40.23L241.67-40.23L241.67-40.23Q235.90-35.24 235.90-26.48L235.90-26.48L235.90-26.48Q235.90-17.02 241.56-12.37L241.56-12.37L241.56-12.37Q247.23-7.73 254.47-7.73L254.47-7.73L254.47-7.73Q258.25-7.73 262.07-9.18L262.07-9.18L262.07-9.18Q265.89-10.62 269.05-13.42L269.05-13.42L269.05-13.42Q269.67-13.95 270.38-14.26L270.38-14.26L270.38-14.26Q271.09-14.57 271.84-14.57L271.84-14.57L271.84-14.57Q273.67-14.57 274.89-13.66L274.89-13.66L274.89-13.66Q276.11-12.75 276.11-11.11L276.11-11.11L276.11-11.11Q276.11-5.42 268.47-2.16L268.47-2.16L268.47-2.16Q260.83 1.11 255.00 1.11L255.00 1.11L255.00 1.11Q242.25 1.11 234.14-6.24L234.14-6.24L234.14-6.24Q226.03-13.60 226.03-26.48L226.03-26.48L226.03-26.48Q226.03-39.10 234.90-45.94L234.90-45.94L234.90-45.94Q243.76-52.79 255.72-52.79L255.72-52.79ZM338.18-7.46L338.18-7.46L338.18-7.46Q338.18-3.91 333.47-1.40L333.47-1.40L333.47-1.40Q328.76 1.11 325.74 1.11L325.74 1.11L325.74 1.11Q322.10 1.11 319.88-0.67L319.88-0.67L319.88-0.67Q317.66-2.44 316.86-6.09L316.86-6.09L316.86-6.09Q313.61-2.35 308.37-0.56L308.37-0.56L308.37-0.56Q303.13 1.24 297.17 1.24L297.17 1.24L297.17 1.24Q290.37 1.24 285.82-2.89L285.82-2.89L285.82-2.89Q281.26-7.02 281.26-13.64L281.26-13.64L281.26-13.64Q281.26-25.55 292.91-28.22L292.91-28.22L292.91-28.22Q304.55-30.88 315.66-31.86L315.66-31.86L315.66-39.06L315.66-39.06Q315.66-42.52 312.68-43.88L312.68-43.88L312.68-43.88Q309.70-45.23 306.28-45.23L306.28-45.23L306.28-45.23Q300.06-45.23 296.84-43.90L296.84-43.90L296.84-43.90Q293.62-42.57 289.35-39.86L289.35-39.86L289.35-39.86Q288.95-39.63 288.57-39.50L288.57-39.50L288.57-39.50Q288.20-39.37 287.80-39.37L287.80-39.37L287.80-39.37Q286.29-39.37 285.09-40.79L285.09-40.79L285.09-40.79Q283.89-42.21 283.89-43.77L283.89-43.77L283.89-43.77Q283.89-49.10 291.68-50.94L291.68-50.94L291.68-50.94Q299.48-52.79 304.99-52.79L304.99-52.79L304.99-52.79Q316.23-52.79 320.37-48.01L320.37-48.01L320.37-48.01Q324.50-43.23 324.50-32.13L324.50-32.13L324.50-9.73L324.50-9.73Q324.50-8.35 324.97-7.44L324.97-7.44L324.97-7.44Q325.43-6.53 326.45-6.53L326.45-6.53L326.45-6.53Q328.45-6.53 330.94-8.93L330.94-8.93L330.94-8.93Q333.43-11.33 335.03-11.33L335.03-11.33L335.03-11.33Q336.01-11.33 337.10-10.02L337.10-10.02L337.10-10.02Q338.18-8.71 338.18-7.46L338.18-7.46ZM315.66-12.26L315.66-25.19L315.66-25.19Q308.64-24.44 299.73-22.91L299.73-22.91L299.73-22.91Q290.82-21.37 290.82-13.91L290.82-13.91L290.82-13.91Q290.82-10.13 293.62-8.29L293.62-8.29L293.62-8.29Q296.42-6.44 300.28-6.44L300.28-6.44L300.28-6.44Q304.90-6.44 308.75-8.15L308.75-8.15L308.75-8.15Q312.59-9.86 315.66-12.26L315.66-12.26ZM360.49-77.09L360.49-77.09L360.49-77.09Q361.42-77.09 362.13-76.49L362.13-76.49L362.13-76.49Q362.84-75.89 362.84-74.92L362.84-74.92L362.84-7.82L373.69-7.82L373.69-7.82Q375.38-7.82 376.13-6.60L376.13-6.60L376.13-6.60Q376.89-5.38 376.89-3.73L376.89-3.73L376.89-3.73Q376.89-2.27 376.02-1.13L376.02-1.13L376.02-1.13Q375.15 0 373.60 0L373.60 0L343.92 0L343.92 0Q342.05 0 341.16-1.07L341.16-1.07L341.16-1.07Q340.27-2.13 340.27-3.82L340.27-3.82L340.27-3.82Q340.27-5.47 341.09-6.64L341.09-6.64L341.09-6.64Q341.92-7.82 343.65-7.82L343.65-7.82L353.74-7.82L353.74-67.54L343.29-64.78L343.29-64.78Q343.12-64.78 343.07-64.74L343.07-64.74L343.07-64.74Q343.03-64.70 342.85-64.70L342.85-64.70L342.85-64.70Q341.47-64.70 340.38-65.92L340.38-65.92L340.38-65.92Q339.29-67.14 339.29-68.52L339.29-68.52L339.29-68.52Q339.29-70.43 340.29-71.03L340.29-71.03L340.29-71.03Q341.29-71.63 342.76-72.07L342.76-72.07L359.87-77.00L359.87-77.00Q359.96-77.05 360.11-77.07L360.11-77.07L360.11-77.07Q360.27-77.09 360.49-77.09L360.49-77.09ZM401.10-77.09L401.10-77.09L401.10-77.09Q402.04-77.09 402.75-76.49L402.75-76.49L402.75-76.49Q403.46-75.89 403.46-74.92L403.46-74.92L403.46-7.82L414.30-7.82L414.30-7.82Q415.99-7.82 416.74-6.60L416.74-6.60L416.74-6.60Q417.50-5.38 417.50-3.73L417.50-3.73L417.50-3.73Q417.50-2.27 416.63-1.13L416.63-1.13L416.63-1.13Q415.77 0 414.21 0L414.21 0L384.53 0L384.53 0Q382.66 0 381.77-1.07L381.77-1.07L381.77-1.07Q380.88-2.13 380.88-3.82L380.88-3.82L380.88-3.82Q380.88-5.47 381.71-6.64L381.71-6.64L381.71-6.64Q382.53-7.82 384.26-7.82L384.26-7.82L394.35-7.82L394.35-67.54L383.91-64.78L383.91-64.78Q383.73-64.78 383.68-64.74L383.68-64.74L383.68-64.74Q383.64-64.70 383.46-64.70L383.46-64.70L383.46-64.70Q382.08-64.70 381.00-65.92L381.00-65.92L381.00-65.92Q379.91-67.14 379.91-68.52L379.91-68.52L379.91-68.52Q379.91-70.43 380.91-71.03L380.91-71.03L380.91-71.03Q381.91-71.63 383.37-72.07L383.37-72.07L400.48-77.00L400.48-77.00Q400.57-77.05 400.72-77.07L400.72-77.07L400.72-77.07Q400.88-77.09 401.10-77.09L401.10-77.09Z" fill="#000000"></path></g></g><style>text {
  font-size: 64px;
  font-family: Arial Black;
  dominant-baseline: central;
  text-anchor: middle;
}</style></svg>